<svg width="16" height="16" viewBox="0 0 16 16" fill="none" xmlns="http://www.w3.org/2000/svg">
<path d="M7.99999 5.3335C6.55333 5.3335 5.33333 6.5535 5.33333 8.00016C5.33333 9.44683 6.55333 10.6668 7.99999 10.6668C9.44666 10.6668 10.6667 9.44683 10.6667 8.00016C10.6667 6.5535 9.44666 5.3335 7.99999 5.3335ZM7.99999 9.3335C7.28666 9.3335 6.66666 8.7135 6.66666 8.00016C6.66666 7.28683 7.28666 6.66683 7.99999 6.66683C8.71333 6.66683 9.33333 7.28683 9.33333 8.00016C9.33333 8.7135 8.71333 9.3335 7.99999 9.3335Z" fill="#1D1F1F"/>
<path d="M13.3333 3.33351H11.6067L9.8 1.52684C9.73771 1.46505 9.66383 1.41617 9.5826 1.38299C9.50138 1.34982 9.4144 1.333 9.32667 1.33351H6.66C6.48 1.33351 6.31333 1.40684 6.18667 1.52684L4.38 3.33351H2.65333C1.92 3.33351 1.32 3.93351 1.32 4.66684V12.0002C1.32 12.7335 1.92 13.3335 2.65333 13.3335H13.32C14.0533 13.3335 14.6533 12.7335 14.6533 12.0002V4.66684C14.6533 3.93351 14.0533 3.33351 13.32 3.33351H13.3333ZM13.3333 12.0002H2.66667V4.66684H4.66667C4.84667 4.66684 5.01333 4.59351 5.14 4.47351L6.94667 2.66684H9.06L10.8667 4.47351C10.9933 4.60017 11.16 4.66684 11.34 4.66684H13.34V12.0002H13.3333Z" fill="#1D1F1F"/>
</svg>
