<svg width="16" height="16" viewBox="0 0 16 16" fill="none" xmlns="http://www.w3.org/2000/svg">
<path d="M2.16733 7.99996L1.43133 6.72796C1.34288 6.57492 1.31882 6.39302 1.36445 6.22224C1.41008 6.05147 1.52166 5.90581 1.67467 5.81729L2.948 5.08129V3.61462C2.948 3.43781 3.01824 3.26824 3.14326 3.14322C3.26829 3.01819 3.43786 2.94796 3.61467 2.94796H5.08067L5.816 1.67529C5.90436 1.52218 6.04992 1.41043 6.22067 1.36462C6.30525 1.34196 6.39348 1.33618 6.4803 1.34762C6.56712 1.35906 6.65084 1.38749 6.72667 1.43129L8 2.16729L9.27333 1.43062C9.42645 1.34222 9.60842 1.31827 9.7792 1.36402C9.94998 1.40978 10.0956 1.52151 10.184 1.67462L10.92 2.94796H12.386C12.5628 2.94796 12.7324 3.01819 12.8574 3.14322C12.9824 3.26824 13.0527 3.43781 13.0527 3.61462V5.08062L14.326 5.81662C14.4018 5.86046 14.4683 5.9188 14.5216 5.98834C14.5749 6.05787 14.6139 6.13722 14.6365 6.22186C14.6591 6.3065 14.6648 6.39476 14.6533 6.4816C14.6418 6.56844 14.6132 6.65215 14.5693 6.72796L13.8333 7.99996L14.5693 9.27196C14.6573 9.42514 14.6812 9.6069 14.6358 9.77762C14.5903 9.94834 14.4792 10.0942 14.3267 10.1833L13.0533 10.9193V12.3853C13.0533 12.5621 12.9831 12.7317 12.8581 12.8567C12.733 12.9817 12.5635 13.052 12.3867 13.052H10.92L10.184 14.3253C10.125 14.4262 10.0407 14.51 9.93948 14.5684C9.83825 14.6269 9.72355 14.658 9.60667 14.6586C9.49067 14.6586 9.37533 14.628 9.27267 14.5686L8.00067 13.8326L6.72733 14.5686C6.5743 14.6571 6.39239 14.6811 6.22162 14.6355C6.05085 14.5899 5.90519 14.4783 5.81667 14.3253L5.08133 13.052H3.61533C3.43852 13.052 3.26895 12.9817 3.14393 12.8567C3.01891 12.7317 2.94867 12.5621 2.94867 12.3853V10.9193L1.67533 10.1833C1.59949 10.1395 1.53302 10.0811 1.47974 10.0116C1.42645 9.94204 1.38739 9.86269 1.3648 9.77805C1.3422 9.69342 1.3365 9.60516 1.34803 9.51832C1.35956 9.43148 1.3881 9.34776 1.432 9.27196L2.16733 7.99996ZM9.66733 4.65996C9.40203 4.66005 9.14763 4.76552 8.96009 4.95318C8.77255 5.14085 8.66725 5.39532 8.66733 5.66062C8.66742 5.92593 8.7729 6.18033 8.96056 6.36787C9.14822 6.55541 9.4027 6.66071 9.668 6.66062C9.93331 6.66054 10.1877 6.55506 10.3752 6.3674C10.5628 6.17974 10.6681 5.92526 10.668 5.65996C10.6679 5.39465 10.5624 5.14025 10.3748 4.95271C10.1871 4.76518 9.93264 4.65987 9.66733 4.65996ZM9.46733 11.06L10.534 10.2606L6.534 4.92729L5.46733 5.72662L9.46733 11.06ZM6.334 11.3266C6.46537 11.3266 6.59544 11.3007 6.71679 11.2503C6.83814 11.2 6.94839 11.1263 7.04125 11.0334C7.1341 10.9405 7.20775 10.8302 7.25798 10.7088C7.30821 10.5874 7.33404 10.4573 7.334 10.326C7.33396 10.1946 7.30804 10.0645 7.25773 9.94317C7.20742 9.82182 7.13369 9.71157 7.04077 9.61871C6.94785 9.52585 6.83755 9.45221 6.71617 9.40198C6.59479 9.35174 6.4647 9.32591 6.33333 9.32596C6.06803 9.32605 5.81363 9.43152 5.62609 9.61918C5.43855 9.80684 5.33325 10.0613 5.33333 10.3266C5.33342 10.5919 5.4389 10.8463 5.62656 11.0339C5.81422 11.2214 6.0687 11.3267 6.334 11.3266Z" fill="#333333"/>
</svg>
