<svg width="16" height="16" viewBox="0 0 16 16" fill="none" xmlns="http://www.w3.org/2000/svg">
<path d="M2.92701 4.18418C2.57988 3.83704 2.57988 3.27423 2.92702 2.9271C3.27415 2.57996 3.83696 2.57997 4.18409 2.9271L7.99999 6.74299L11.8159 2.9271C12.163 2.57997 12.7258 2.57996 13.073 2.9271C13.4201 3.27423 13.4201 3.83704 13.073 4.18418L9.25705 8.00007L13.073 11.8159C13.4201 12.1631 13.4201 12.7259 13.073 13.0731C12.7258 13.4202 12.163 13.4202 11.8159 13.0731L7.99999 9.25713L4.18409 13.0731C3.83696 13.4202 3.27415 13.4202 2.92702 13.0731C2.57988 12.7259 2.57988 12.1631 2.92701 11.8159L6.7429 8.00007L2.92701 4.18418Z" fill="#333333"/>
</svg>
