<svg width="16" height="16" viewBox="0 0 16 16" fill="none" xmlns="http://www.w3.org/2000/svg">
<path fill-rule="evenodd" clip-rule="evenodd" d="M7.00641 3.47902C6.59241 3.59102 6.20574 3.76636 5.93641 4.00902C5.20107 4.67236 4.90174 5.57102 4.90174 7.19102C4.90174 8.34569 4.24441 9.43902 3.77107 10.147C3.66841 10.3017 3.63641 10.449 3.64241 10.5377C3.64507 10.5777 3.65441 10.5964 3.65841 10.603C3.66107 10.6077 3.66907 10.6204 3.70107 10.6377C4.16241 10.8844 4.85841 11.0644 5.66307 11.1784C6.4376 11.2823 7.21827 11.3338 7.99974 11.3324C8.17655 11.3324 8.34612 11.4026 8.47114 11.5276C8.59617 11.6526 8.66641 11.8222 8.66641 11.999C8.66641 12.1758 8.59617 12.3454 8.47114 12.4704C8.34612 12.5955 8.17655 12.6657 7.99974 12.6657C7.24774 12.6657 6.34374 12.6224 5.47574 12.499C4.62107 12.377 3.74041 12.1704 3.07241 11.8137C2.58107 11.551 2.34374 11.0937 2.31241 10.6277C2.28174 10.1884 2.43041 9.75436 2.66241 9.40702C3.14041 8.69102 3.56841 7.90102 3.56841 7.19102C3.56841 5.41702 3.89641 4.05302 5.04374 3.01902C5.52707 2.58302 6.13441 2.33436 6.6564 2.19236C7.09412 2.07097 7.54556 2.006 7.99974 1.99902C8.17655 1.99902 8.34612 2.06926 8.47114 2.19429C8.59617 2.31931 8.66641 2.48888 8.66641 2.66569C8.66641 2.8425 8.59617 3.01207 8.47114 3.13709C8.34612 3.26212 8.17655 3.33236 7.99974 3.33236C7.79574 3.33236 7.41574 3.36702 7.00641 3.47902Z" fill="#333333"/>
<path fill-rule="evenodd" clip-rule="evenodd" d="M8.99322 3.47902C9.40722 3.59102 9.79389 3.76636 10.0632 4.00902C10.7986 4.67236 11.0979 5.57102 11.0979 7.19102C11.0979 8.34569 11.7552 9.43902 12.2286 10.147C12.3312 10.3017 12.3632 10.449 12.3572 10.5377C12.3576 10.5605 12.352 10.583 12.3412 10.603C12.3386 10.6077 12.3306 10.6204 12.2986 10.6377C11.8372 10.8844 11.1412 11.0644 10.3366 11.1784C9.56203 11.2823 8.78136 11.3338 7.99989 11.3324C7.82308 11.3324 7.65351 11.4026 7.52848 11.5276C7.40346 11.6526 7.33322 11.8222 7.33322 11.999C7.33322 12.1758 7.40346 12.3454 7.52848 12.4704C7.65351 12.5955 7.82308 12.6657 7.99989 12.6657C8.75189 12.6657 9.65522 12.6224 10.5239 12.499C11.3786 12.377 12.2592 12.1704 12.9272 11.8137C13.4186 11.551 13.6559 11.0937 13.6872 10.6277C13.7179 10.1884 13.5692 9.75436 13.3372 9.40702C12.8592 8.69102 12.4312 7.90102 12.4312 7.19102C12.4312 5.41702 12.1032 4.05302 10.9559 3.01902C10.4726 2.58302 9.86522 2.33436 9.34322 2.19236C8.9055 2.07097 8.45407 2.006 7.99989 1.99902C7.82308 1.99902 7.65351 2.06926 7.52848 2.19429C7.40346 2.31931 7.33322 2.48888 7.33322 2.66569C7.33322 2.8425 7.40346 3.01207 7.52848 3.13709C7.65351 3.26212 7.82308 3.33236 7.99989 3.33236C8.20389 3.33236 8.58389 3.36702 8.99322 3.47902Z" fill="#333333"/>
<path d="M9.76449 2.45252C9.76449 2.91585 8.83382 2.48052 8.09782 2.48052C7.36182 2.48052 6.43115 2.91585 6.43115 2.45185C6.43115 1.98852 7.09782 1.33252 8.09782 1.33252C9.09782 1.33252 9.76449 1.98852 9.76449 2.45252Z" fill="#333333"/>
<path fill-rule="evenodd" clip-rule="evenodd" d="M6.66625 11.9993C6.66625 12.3529 6.80673 12.692 7.05677 12.9421C7.30682 13.1921 7.64596 13.3326 7.99958 13.3326C8.3532 13.3326 8.69234 13.1921 8.94239 12.9421C9.19244 12.692 9.33292 12.3529 9.33292 11.9993H10.6662C10.6662 12.7065 10.3853 13.3848 9.8852 13.8849C9.3851 14.385 8.70683 14.6659 7.99958 14.6659C7.29234 14.6659 6.61406 14.385 6.11396 13.8849C5.61387 13.3848 5.33292 12.7065 5.33292 11.9993H6.66625Z" fill="#333333"/>
</svg>
