<svg width="16" height="18" viewBox="0 0 16 18" fill="none" xmlns="http://www.w3.org/2000/svg">
<path d="M9.52 2.22217C9.79984 2.22224 10.0726 2.31036 10.2995 2.47404C10.5265 2.63772 10.6962 2.86867 10.7847 3.13417L11.1467 4.22217H13.3333C13.5101 4.22217 13.6797 4.29241 13.8047 4.41743C13.9298 4.54245 14 4.71202 14 4.88883C14 5.06565 13.9298 5.23521 13.8047 5.36024C13.6797 5.48526 13.5101 5.5555 13.3333 5.5555L13.3313 5.60283L12.7533 13.6982C12.7173 14.2026 12.4915 14.6746 12.1214 15.0192C11.7513 15.3638 11.2644 15.5554 10.7587 15.5555H5.24133C4.73564 15.5554 4.24874 15.3638 3.87864 15.0192C3.50855 14.6746 3.28274 14.2026 3.24667 13.6982L2.66867 5.60217C2.66746 5.58664 2.66679 5.57108 2.66667 5.5555C2.48986 5.5555 2.32029 5.48526 2.19526 5.36024C2.07024 5.23521 2 5.06565 2 4.88883C2 4.71202 2.07024 4.54245 2.19526 4.41743C2.32029 4.29241 2.48986 4.22217 2.66667 4.22217H4.85333L5.21533 3.13417C5.3038 2.86856 5.47362 2.63754 5.70073 2.47384C5.92784 2.31015 6.20071 2.2221 6.48067 2.22217H9.51933H9.52ZM11.998 5.5555H4.002L4.57667 13.6028C4.58863 13.771 4.66385 13.9283 4.78717 14.0432C4.9105 14.1582 5.07277 14.2221 5.24133 14.2222H10.7587C10.9272 14.2221 11.0895 14.1582 11.2128 14.0432C11.3362 13.9283 11.4114 13.771 11.4233 13.6028L11.998 5.5555ZM6.66667 7.5555C6.82996 7.55552 6.98756 7.61547 7.10958 7.72398C7.23161 7.83248 7.30956 7.982 7.32867 8.14417L7.33333 8.22217V11.5555C7.33315 11.7254 7.26808 11.8889 7.15143 12.0124C7.03479 12.136 6.87536 12.2103 6.70574 12.2203C6.53611 12.2302 6.36908 12.1751 6.23878 12.066C6.10848 11.9569 6.02474 11.8022 6.00467 11.6335L6 11.5555V8.22217C6 8.04536 6.07024 7.87579 6.19526 7.75076C6.32029 7.62574 6.48986 7.5555 6.66667 7.5555ZM9.33333 7.5555C9.51014 7.5555 9.67971 7.62574 9.80474 7.75076C9.92976 7.87579 10 8.04536 10 8.22217V11.5555C10 11.7323 9.92976 11.9019 9.80474 12.0269C9.67971 12.1519 9.51014 12.2222 9.33333 12.2222C9.15652 12.2222 8.98695 12.1519 8.86193 12.0269C8.73691 11.9019 8.66667 11.7323 8.66667 11.5555V8.22217C8.66667 8.04536 8.73691 7.87579 8.86193 7.75076C8.98695 7.62574 9.15652 7.5555 9.33333 7.5555ZM9.52 3.5555H6.48L6.258 4.22217H9.742L9.51933 3.5555H9.52Z" fill="#333333"/>
</svg>
