<svg width="16" height="16" viewBox="0 0 16 16" fill="none" xmlns="http://www.w3.org/2000/svg">
<g clip-path="url(#clip0_188_4604)">
<path fill-rule="evenodd" clip-rule="evenodd" d="M7.03503 0.679846C7.27656 0.438298 7.59987 0.296092 7.94113 0.281309C8.28239 0.266527 8.61679 0.380242 8.8783 0.6L8.96497 0.679846L10.0753 1.78949L10.194 1.62434L10.409 1.3152L10.5489 1.105L10.6895 0.880482C10.8997 0.552912 11.1515 0.241038 11.5944 0.363195C11.7247 0.399241 11.8413 0.473161 11.9295 0.575582C12.0177 0.678003 12.0735 0.804311 12.0898 0.938489L12.0946 1.02106V5.11569C12.0949 6.05547 11.7718 6.96673 11.1797 7.69652C10.5876 8.42631 9.76247 8.93021 8.84281 9.12365L8.68244 9.15367V11.8834C9.33196 11.7732 9.94538 11.5082 10.4708 11.1107C10.9962 10.7132 11.4181 10.195 11.7009 9.59999C11.7393 9.51902 11.7933 9.44641 11.8598 9.38632C11.9263 9.32622 12.004 9.27982 12.0885 9.24975C12.1729 9.21968 12.2624 9.20654 12.352 9.21107C12.4415 9.2156 12.5292 9.23773 12.6102 9.27617C12.6912 9.31462 12.7638 9.36864 12.8239 9.43514C12.884 9.50165 12.9304 9.57934 12.9604 9.66378C12.9905 9.74822 13.0037 9.83776 12.9991 9.92728C12.9946 10.0168 12.9725 10.1045 12.934 10.1855C12.5411 11.0146 11.9456 11.7312 11.2025 12.2692C10.4594 12.8073 9.59269 13.1494 8.68244 13.264C8.68244 13.6503 8.40469 13.9881 8 13.9881C7.59531 13.9881 7.31756 13.6503 7.31756 13.2633C6.40745 13.1489 5.54084 12.807 4.79776 12.2692C4.05468 11.7313 3.45909 11.015 3.06598 10.1862C2.98833 10.0227 2.97882 9.835 3.03955 9.66446C3.10028 9.49393 3.22626 9.3545 3.38979 9.27685C3.55332 9.19921 3.741 9.1897 3.91153 9.25043C4.08207 9.31116 4.22149 9.43714 4.29914 9.60067C4.56909 10.169 4.96615 10.6675 5.45962 11.0578C5.95308 11.4481 6.52971 11.7196 7.14491 11.8514L7.31756 11.8841V9.15436C6.39189 8.9979 5.5481 8.5281 4.92753 7.82367C4.30695 7.11923 3.94729 6.22294 3.90879 5.28493L3.90537 5.11569V1.02106C3.90533 0.871792 3.95423 0.726621 4.04458 0.607797C4.13493 0.488973 4.26175 0.40305 4.4056 0.363195C4.81302 0.250592 5.06006 0.507871 5.26138 0.806097L5.49682 1.17598L5.591 1.3152L5.80596 1.62434L5.92471 1.78949L7.03503 0.679846ZM10.7298 3.17961C10.3803 3.61433 9.97156 4.06951 9.54572 4.42438C9.13967 4.76287 8.59509 5.11569 8 5.11569C7.40491 5.11569 6.86033 4.76287 6.45428 4.42438C6.09941 4.12889 5.75683 3.76378 5.44973 3.39868L5.27025 3.1803V5.11569C5.27024 5.82785 5.54854 6.51182 6.04577 7.02166C6.54301 7.53149 7.2198 7.82682 7.93174 7.84463C8.64367 7.86244 9.33438 7.60132 9.85649 7.11698C10.3786 6.63265 10.6907 5.96345 10.7263 5.25218L10.7298 5.11569V3.17961ZM8 1.64481L6.78936 2.85546L7.05209 3.14208C7.32507 3.43143 7.6738 3.75082 8 3.75082C8.32621 3.75082 8.67561 3.43143 8.94859 3.14208L9.21065 2.85546L8 1.64481Z" fill="#1D1F1F"/>
</g>
<defs>
<clipPath id="clip0_188_4604">
<rect width="16" height="16" fill="white"/>
</clipPath>
</defs>
</svg>
