<svg width="16" height="16" viewBox="0 0 16 16" fill="none" xmlns="http://www.w3.org/2000/svg">
<g clip-path="url(#clip0_190_5513)">
<path d="M14.0005 7.64258C14.313 7.85612 14.5916 8.09831 14.8364 8.36914C15.0812 8.63997 15.2922 8.93685 15.4692 9.25977C15.6463 9.58268 15.7765 9.92383 15.8599 10.2832C15.9432 10.6426 15.9901 11.0098 16.0005 11.3848C16.0005 12.0046 15.8833 12.5879 15.6489 13.1348C15.4146 13.6816 15.0916 14.1582 14.6802 14.5645C14.2687 14.9707 13.7922 15.291 13.2505 15.5254C12.7088 15.7598 12.1255 15.8796 11.5005 15.8848C11.0265 15.8848 10.5682 15.8145 10.1255 15.6738C9.68278 15.5332 9.27653 15.3301 8.90674 15.0645C8.53695 14.7988 8.20882 14.4811 7.92236 14.1113C7.6359 13.7415 7.41455 13.3327 7.2583 12.8848H1.00049V0.884766H3.00049V-0.115234H4.00049V0.884766H11.0005V-0.115234H12.0005V0.884766H14.0005V7.64258ZM2.00049 1.88477V3.88477H13.0005V1.88477H12.0005V2.88477H11.0005V1.88477H4.00049V2.88477H3.00049V1.88477H2.00049ZM7.02393 11.8848C7.0083 11.7233 7.00049 11.5566 7.00049 11.3848C7.00049 10.765 7.11768 10.1816 7.35205 9.63477C7.58643 9.08789 7.90934 8.61133 8.3208 8.20508C8.73226 7.79883 9.20882 7.47852 9.75049 7.24414C10.2922 7.00977 10.8755 6.88997 11.5005 6.88477C12.0213 6.88477 12.5213 6.9707 13.0005 7.14258V4.88477H2.00049V11.8848H7.02393ZM11.5005 14.8848C11.9849 14.8848 12.438 14.7936 12.8599 14.6113C13.2817 14.429 13.6515 14.179 13.9692 13.8613C14.2869 13.5436 14.5369 13.1738 14.7192 12.752C14.9015 12.3301 14.9953 11.8743 15.0005 11.3848C15.0005 10.9004 14.9093 10.4473 14.7271 10.0254C14.5448 9.60352 14.2948 9.23372 13.9771 8.91602C13.6593 8.59831 13.2896 8.34831 12.8677 8.16602C12.4458 7.98372 11.9901 7.88997 11.5005 7.88477C11.0161 7.88477 10.563 7.97591 10.1411 8.1582C9.71924 8.3405 9.34945 8.5905 9.03174 8.9082C8.71403 9.22591 8.46403 9.5957 8.28174 10.0176C8.09945 10.4395 8.0057 10.8952 8.00049 11.3848C8.00049 11.8691 8.09163 12.3223 8.27393 12.7441C8.45622 13.166 8.70622 13.5358 9.02393 13.8535C9.34163 14.1712 9.71143 14.4212 10.1333 14.6035C10.5552 14.7858 11.0109 14.8796 11.5005 14.8848ZM12.0005 10.8848H13.5005V11.8848H11.0005V8.88477H12.0005V10.8848Z" fill="#333333"/>
</g>
<defs>
<clipPath id="clip0_190_5513">
<rect width="16" height="16" fill="white"/>
</clipPath>
</defs>
</svg>
