<svg width="16" height="16" viewBox="0 0 16 16" fill="none" xmlns="http://www.w3.org/2000/svg">
<path d="M3.288 2.28564C2.71968 2.28564 2.17463 2.51141 1.77277 2.91327C1.37091 3.31514 1.14514 3.86018 1.14514 4.4285V10.9999C1.14514 11.5683 1.37091 12.1133 1.77277 12.5152C2.17463 12.917 2.71968 13.1428 3.288 13.1428H12.7143C13.2826 13.1428 13.8277 12.917 14.2295 12.5152C14.6314 12.1133 14.8571 11.5683 14.8571 10.9999V4.4285C14.8571 3.86018 14.6314 3.31514 14.2295 2.91327C13.8277 2.51141 13.2826 2.28564 12.7143 2.28564H3.288ZM2.00228 4.4285C2.00228 4.08751 2.13774 3.76048 2.37886 3.51936C2.61998 3.27825 2.94701 3.14279 3.288 3.14279H12.7143C13.0553 3.14279 13.3823 3.27825 13.6234 3.51936C13.8645 3.76048 14 4.08751 14 4.4285V4.87364L8 7.94679L2.00228 4.87479V4.4285ZM2.00228 5.83822L7.80457 8.80964C7.86505 8.84063 7.93204 8.8568 8 8.8568C8.06796 8.8568 8.13494 8.84063 8.19543 8.80964L14 5.83707V11.0005C14 11.3415 13.8645 11.6685 13.6234 11.9096C13.3823 12.1508 13.0553 12.2862 12.7143 12.2862H3.28857C2.94758 12.2862 2.62055 12.1508 2.37943 11.9096C2.13831 11.6685 2.00286 11.3415 2.00286 11.0005L2.00228 5.83822Z" fill="#333333"/>
</svg>
