<svg width="16" height="16" viewBox="0 0 16 16" fill="none" xmlns="http://www.w3.org/2000/svg">
<g clip-path="url(#clip0_194_6615)">
<path d="M7.99937 1.33301C4.31737 1.33301 1.3327 4.31767 1.3327 7.99967C1.3327 11.6817 4.31737 14.6663 7.99937 14.6663C11.6814 14.6663 14.666 11.6817 14.666 7.99967C14.666 4.31767 11.6814 1.33301 7.99937 1.33301Z" stroke="#333333" stroke-linecap="round" stroke-linejoin="round"/>
<path d="M2.84705 12.2309C2.84705 12.2309 4.33305 10.3336 7.99971 10.3336C11.6664 10.3336 13.153 12.2309 13.153 12.2309M7.99971 8.00024C8.53015 8.00024 9.03885 7.78953 9.41393 7.41446C9.789 7.03939 9.99971 6.53068 9.99971 6.00024C9.99971 5.46981 9.789 4.9611 9.41393 4.58603C9.03885 4.21096 8.53015 4.00024 7.99971 4.00024C7.46928 4.00024 6.96057 4.21096 6.5855 4.58603C6.21043 4.9611 5.99971 5.46981 5.99971 6.00024C5.99971 6.53068 6.21043 7.03939 6.5855 7.41446C6.96057 7.78953 7.46928 8.00024 7.99971 8.00024Z" stroke="#333333" stroke-linecap="round" stroke-linejoin="round"/>
</g>
<defs>
<clipPath id="clip0_194_6615">
<rect width="16" height="16" fill="white"/>
</clipPath>
</defs>
</svg>
