<svg width="16" height="16" viewBox="0 0 16 16" fill="none" xmlns="http://www.w3.org/2000/svg">
<path d="M2.66667 10.9999V13.3333C2.66667 13.6869 2.80714 14.026 3.05719 14.2761C3.30724 14.5261 3.64638 14.6666 4 14.6666H12C12.3536 14.6666 12.6928 14.5261 12.9428 14.2761C13.1929 14.026 13.3333 13.6869 13.3333 13.3333V10.9999M2 9.33325V8.66659C2 8.31296 2.14048 7.97383 2.39052 7.72378C2.64057 7.47373 2.97971 7.33325 3.33333 7.33325H12.6667C13.0203 7.33325 13.3594 7.47373 13.6095 7.72378C13.8595 7.97383 14 8.31296 14 8.66659V9.33325M8 5.33325V7.33325M8 5.33325C8.84133 5.33325 9.33333 4.68792 9.33333 3.58325C9.33333 2.47859 8 1.33325 8 1.33325C8 1.33325 6.66667 2.47859 6.66667 3.58325C6.66667 4.68792 7.15867 5.33325 8 5.33325Z" stroke="#333333" stroke-linecap="round" stroke-linejoin="round"/>
<path d="M2 9.33325C2 9.86368 2.21071 10.3724 2.58579 10.7475C2.96086 11.1225 3.46957 11.3333 4 11.3333C4.53043 11.3333 5.03914 11.1225 5.41421 10.7475C5.78929 10.3724 6 9.86368 6 9.33325C6 9.86368 6.21071 10.3724 6.58579 10.7475C6.96086 11.1225 7.46957 11.3333 8 11.3333C8.53043 11.3333 9.03914 11.1225 9.41421 10.7475C9.78929 10.3724 10 9.86368 10 9.33325C10 9.86368 10.2107 10.3724 10.5858 10.7475C10.9609 11.1225 11.4696 11.3333 12 11.3333C12.5304 11.3333 13.0391 11.1225 13.4142 10.7475C13.7893 10.3724 14 9.86368 14 9.33325" stroke="#333333" stroke-linecap="round" stroke-linejoin="round"/>
</svg>
