<svg width="16" height="16" viewBox="0 0 16 16" fill="none" xmlns="http://www.w3.org/2000/svg">
<path fill-rule="evenodd" clip-rule="evenodd" d="M13.2 6.7866C12.9934 4.6666 11.74 1.33325 7.86672 1.33325C3.99338 1.33325 2.74003 4.6666 2.53337 6.7866C1.80837 7.06175 1.33016 7.75781 1.33337 8.53325V9.4666C1.33337 10.4975 2.16912 11.3333 3.20003 11.3333C4.23097 11.3333 5.06672 10.4975 5.06672 9.4666V8.53325C5.06334 7.77453 4.60272 7.09278 3.90003 6.8066C4.03338 5.57991 4.68672 2.6666 7.86672 2.6666C11.0467 2.6666 11.6934 5.57991 11.8267 6.8066C11.1255 7.09341 10.6672 7.77563 10.6667 8.53325V9.4666C10.6681 9.81783 10.7683 10.1616 10.9557 10.4587C11.1431 10.7557 11.4103 10.9941 11.7267 11.1466C11.4467 11.6733 10.7334 12.3866 8.98003 12.5999C8.62956 12.0677 7.95147 11.8579 7.36166 12.0992C6.77187 12.3404 6.43522 12.9653 6.55822 13.5906C6.68122 14.2158 7.22947 14.6666 7.86672 14.6666C8.11364 14.6652 8.35532 14.5953 8.56484 14.4646C8.77436 14.334 8.94349 14.1477 9.05338 13.9266C11.9134 13.5999 12.8267 12.1266 13.1134 11.2599C13.8889 11.0087 14.4105 10.2818 14.4 9.4666V8.53325C14.4032 7.75781 13.925 7.06175 13.2 6.7866ZM3.73338 9.4666C3.73338 9.76113 3.49459 9.99991 3.20003 9.99991C2.90547 9.99991 2.66672 9.76116 2.66672 9.4666V8.53325C2.66618 8.46287 2.67958 8.39308 2.70614 8.3279C2.7327 8.26272 2.7719 8.20344 2.82148 8.15349C2.87105 8.10353 2.93003 8.06387 2.995 8.03682C3.05998 8.00976 3.12966 7.99583 3.20005 7.99583C3.27043 7.99583 3.34012 8.00976 3.40509 8.03682C3.47007 8.06387 3.52904 8.10353 3.57862 8.15349C3.6282 8.20344 3.6674 8.26272 3.69396 8.3279C3.72052 8.39308 3.73391 8.46287 3.73338 8.53325V9.4666ZM12 8.53325C12 8.23869 12.2388 7.99991 12.5334 7.99991C12.8279 7.99991 13.0667 8.23869 13.0667 8.53325V9.4666C13.0667 9.76113 12.8279 9.99991 12.5334 9.99991C12.2388 9.99991 12 9.76116 12 9.4666V8.53325Z" fill="#333333"/>
</svg>
