<svg width="16" height="16" viewBox="0 0 16 16" fill="none" xmlns="http://www.w3.org/2000/svg">
<path d="M7.99999 14.6664C7.16666 14.6664 6.38622 14.5082 5.65866 14.1917C4.93111 13.8753 4.29777 13.4475 3.75866 12.9084C3.21955 12.3693 2.79177 11.736 2.47533 11.0084C2.15888 10.2809 2.00044 9.50018 1.99999 8.66641C1.99955 7.83263 2.15799 7.05218 2.47533 6.32507C2.79266 5.59796 3.22022 4.96463 3.75799 4.42507C4.29577 3.88552 4.92911 3.45774 5.65799 3.14174C6.38688 2.82574 7.16755 2.6673 7.99999 2.66641C8.83244 2.66552 9.6131 2.82396 10.342 3.14174C11.0709 3.45952 11.7042 3.8873 12.242 4.42507C12.7798 4.96285 13.2076 5.59618 13.5253 6.32507C13.8431 7.05396 14.0013 7.83441 14 8.66641C13.9987 9.49841 13.8404 10.2791 13.5253 11.0084C13.2102 11.7377 12.7824 12.3711 12.242 12.9084C11.7016 13.4457 11.0682 13.8735 10.342 14.1917C9.61577 14.51 8.8351 14.6682 7.99999 14.6664ZM9.86666 11.4664L10.8 10.5331L8.66666 8.39974V5.33307H7.33333V8.93307L9.86666 11.4664ZM3.73333 1.56641L4.66666 2.49974L1.83333 5.33307L0.899994 4.39974L3.73333 1.56641ZM12.2667 1.56641L15.1 4.39974L14.1667 5.33307L11.3333 2.49974L12.2667 1.56641Z" fill="#333333"/>
</svg>
