<svg width="16" height="16" viewBox="0 0 16 16" fill="none" xmlns="http://www.w3.org/2000/svg">
<path d="M4 14.6667C3.63333 14.6667 3.31955 14.5363 3.05867 14.2754C2.79778 14.0145 2.66711 13.7005 2.66667 13.3334V6.66675C2.66667 6.30008 2.79733 5.9863 3.05867 5.72542C3.32 5.46453 3.63378 5.33386 4 5.33342H4.66667V4.00008C4.66667 3.07786 4.99178 2.29186 5.642 1.64208C6.29222 0.992304 7.07822 0.667193 8 0.666749C8.92178 0.666304 9.708 0.991415 10.3587 1.64208C11.0093 2.29275 11.3342 3.07875 11.3333 4.00008V5.33342H12C12.3667 5.33342 12.6807 5.46408 12.942 5.72542C13.2033 5.98675 13.3338 6.30053 13.3333 6.66675V13.3334C13.3333 13.7001 13.2029 14.0141 12.942 14.2754C12.6811 14.5367 12.3671 14.6672 12 14.6667H4ZM4 13.3334H12V6.66675H4V13.3334ZM8 11.3334C8.36667 11.3334 8.68067 11.203 8.942 10.9421C9.20333 10.6812 9.33378 10.3672 9.33333 10.0001C9.33289 9.63297 9.20244 9.31919 8.942 9.05875C8.68156 8.7983 8.36756 8.66764 8 8.66675C7.63244 8.66586 7.31867 8.79653 7.05867 9.05875C6.79867 9.32097 6.668 9.63475 6.66667 10.0001C6.66533 10.3654 6.796 10.6794 7.05867 10.9421C7.32133 11.2047 7.63511 11.3352 8 11.3334ZM6 5.33342H10V4.00008C10 3.44453 9.80556 2.9723 9.41667 2.58342C9.02778 2.19453 8.55555 2.00008 8 2.00008C7.44444 2.00008 6.97222 2.19453 6.58333 2.58342C6.19444 2.9723 6 3.44453 6 4.00008V5.33342Z" fill="#333333"/>
</svg>
