<svg width="16" height="16" viewBox="0 0 16 16" fill="none" xmlns="http://www.w3.org/2000/svg">
<path d="M8 14C7.17423 14 6.39645 13.8422 5.66667 13.5267C4.93689 13.2107 4.30134 12.7818 3.76 12.24C3.21867 11.6982 2.78978 11.0627 2.47334 10.3333C2.15689 9.604 1.99911 8.82622 2 8C2 7.17156 2.15778 6.39311 2.47334 5.66467C2.78934 4.93578 3.21823 4.30089 3.76 3.76C4.30178 3.21911 4.93734 2.79022 5.66667 2.47333C6.39645 2.15778 7.17423 2 8 2C8.82845 2 9.60689 2.15778 10.3353 2.47333C11.0642 2.78933 11.6993 3.21822 12.2407 3.76C12.782 4.30178 13.2107 4.93667 13.5267 5.66467C13.8422 6.39356 14 7.172 14 8C14 8.82578 13.8422 9.60356 13.5267 10.3333C13.2107 11.0631 12.7818 11.6987 12.24 12.24C11.6982 12.7813 11.0633 13.2102 10.3353 13.5267C9.60734 13.8431 8.82889 14.0009 8 14ZM8 13.3387C8.39112 12.836 8.71378 12.3424 8.968 11.858C9.22178 11.3736 9.42823 10.8313 9.58734 10.2313H6.41267C6.58912 10.8651 6.79978 11.4242 7.04467 11.9087C7.29 12.3931 7.60845 12.8698 8 13.3387ZM7.15134 13.2387C6.84023 12.872 6.55623 12.4187 6.29934 11.8787C6.04245 11.3391 5.85134 10.7898 5.726 10.2307H3.16934C3.55156 11.0596 4.09312 11.7396 4.794 12.2707C5.49534 12.8013 6.28112 13.124 7.15134 13.2387ZM8.84867 13.2387C9.71889 13.124 10.5047 12.8013 11.206 12.2707C11.9069 11.7396 12.4484 11.0596 12.8307 10.2307H10.2747C10.1058 10.7982 9.89312 11.3518 9.63667 11.8913C9.37978 12.4313 9.11712 12.8809 8.84867 13.2387ZM2.89734 9.56467H5.58734C5.53667 9.29089 5.50111 9.02422 5.48067 8.76467C5.45934 8.50556 5.44867 8.25067 5.44867 8C5.44867 7.74933 5.45912 7.49444 5.48 7.23533C5.50089 6.97622 5.53645 6.70956 5.58667 6.43533H2.898C2.82556 6.66644 2.76889 6.91822 2.728 7.19067C2.68711 7.46267 2.66667 7.73244 2.66667 8C2.66667 8.26756 2.68689 8.53756 2.72734 8.81C2.76778 9.08244 2.82445 9.33378 2.89734 9.564M6.254 9.564H9.746C9.79667 9.29067 9.83223 9.02844 9.85267 8.77733C9.874 8.52667 9.88467 8.26756 9.88467 8C9.88467 7.73244 9.87423 7.47333 9.85334 7.22267C9.83245 6.972 9.79689 6.70978 9.74667 6.436H6.25334C6.20311 6.70933 6.16756 6.97156 6.14667 7.22267C6.12578 7.47333 6.11534 7.73244 6.11534 8C6.11534 8.26756 6.12578 8.52667 6.14667 8.77733C6.16756 9.028 6.20378 9.29022 6.254 9.564ZM10.4133 9.564H13.1027C13.1751 9.33333 13.2318 9.082 13.2727 8.81C13.3131 8.53756 13.3333 8.26756 13.3333 8C13.3333 7.73244 13.3131 7.46244 13.2727 7.19C13.2322 6.91756 13.1756 6.66622 13.1027 6.436H10.4127C10.4633 6.70933 10.4989 6.97578 10.5193 7.23533C10.5407 7.49489 10.5513 7.74978 10.5513 8C10.5513 8.25022 10.5409 8.50511 10.52 8.76467C10.4991 9.02422 10.4636 9.29089 10.4133 9.56467M10.2747 5.76933H12.8307C12.44 4.92311 11.9049 4.24311 11.2253 3.72933C10.5458 3.21556 9.75356 2.88867 8.84867 2.74867C9.15978 3.158 9.43956 3.62622 9.688 4.15333C9.93645 4.68 10.132 5.21867 10.2747 5.76933ZM6.41267 5.76933H9.58734C9.41134 5.14356 9.19423 4.57778 8.936 4.072C8.67778 3.56622 8.36578 3.096 8 2.66133C7.63423 3.09556 7.32223 3.56578 7.064 4.072C6.80578 4.57822 6.58823 5.144 6.41267 5.76933ZM3.17 5.76933H5.726C5.86867 5.21911 6.06423 4.68044 6.31267 4.15333C6.56111 3.62622 6.84089 3.158 7.152 2.74867C6.23911 2.88911 5.44489 3.218 4.76934 3.73533C4.09378 4.25356 3.56045 4.93133 3.16934 5.76867" fill="#333333"/>
</svg>
