<svg width="16" height="16" viewBox="0 0 16 16" fill="none" xmlns="http://www.w3.org/2000/svg">
<path d="M7.65799 13.6666V12.3106C7.08599 12.2368 6.59466 12.0388 6.18399 11.7166C5.77332 11.3944 5.46799 10.9486 5.26799 10.3793L5.88599 10.1099C6.07843 10.609 6.34288 10.9935 6.67932 11.2633C7.01577 11.533 7.47177 11.6675 8.04732 11.6666C8.55399 11.6666 9.0171 11.5404 9.43666 11.2879C9.85621 11.0355 10.0658 10.6284 10.0653 10.0666C10.0653 9.59236 9.9111 9.21147 9.60266 8.92392C9.29377 8.63636 8.71643 8.35659 7.87066 8.08458C7.00888 7.81036 6.40243 7.49703 6.05132 7.14459C5.70021 6.7917 5.52466 6.33236 5.52466 5.76658C5.52466 5.14703 5.76221 4.65214 6.23732 4.28192C6.71243 3.91214 7.18577 3.71214 7.65732 3.68192V2.33325H8.32399V3.68192C8.78577 3.72814 9.18221 3.85614 9.51332 4.06592C9.84443 4.2757 10.1191 4.57414 10.3373 4.96125L9.74466 5.26392C9.58599 4.97681 9.36732 4.74436 9.08866 4.56659C8.80999 4.38881 8.45532 4.29992 8.02466 4.29992C7.50999 4.29992 7.07577 4.43614 6.72199 4.70859C6.36821 4.98059 6.19132 5.33325 6.19132 5.76658C6.19132 6.17592 6.33643 6.50747 6.62666 6.76125C6.91732 7.01547 7.49955 7.28058 8.37332 7.55658C9.18221 7.81258 9.77777 8.1417 10.16 8.54392C10.5413 8.94614 10.732 9.45103 10.732 10.0586C10.732 10.7279 10.4964 11.2597 10.0253 11.6539C9.55421 12.0481 8.9871 12.2695 8.32399 12.3179V13.6666H7.65799Z" fill="#333333"/>
</svg>
