<svg width="16" height="16" viewBox="0 0 16 16" fill="none" xmlns="http://www.w3.org/2000/svg">
<path d="M8 11.3333C8.18889 11.3333 8.34734 11.2693 8.47534 11.1413C8.60334 11.0133 8.66711 10.855 8.66667 10.6666V7.99992C8.66667 7.81103 8.60267 7.65281 8.47467 7.52525C8.34667 7.3977 8.18845 7.3337 8 7.33325C7.81156 7.33281 7.65334 7.39681 7.52534 7.52525C7.39734 7.6537 7.33334 7.81192 7.33334 7.99992V10.6666C7.33334 10.8555 7.39734 11.0139 7.52534 11.1419C7.65334 11.2699 7.81156 11.3337 8 11.3333ZM8 5.99992C8.18889 5.99992 8.34734 5.93592 8.47534 5.80792C8.60334 5.67992 8.66711 5.5217 8.66667 5.33325C8.66623 5.14481 8.60223 4.98659 8.47467 4.85859C8.34711 4.73059 8.18889 4.66659 8 4.66659C7.81111 4.66659 7.65289 4.73059 7.52534 4.85859C7.39778 4.98659 7.33378 5.14481 7.33334 5.33325C7.33289 5.5217 7.39689 5.68014 7.52534 5.80859C7.65378 5.93703 7.812 6.00081 8 5.99992ZM8 14.6666C7.07778 14.6666 6.21111 14.4915 5.4 14.1413C4.58889 13.791 3.88334 13.3161 3.28334 12.7166C2.68334 12.117 2.20845 11.4115 1.85867 10.5999C1.50889 9.78836 1.33378 8.9217 1.33334 7.99992C1.33289 7.07814 1.508 6.21147 1.85867 5.39992C2.20934 4.58836 2.68423 3.88281 3.28334 3.28325C3.88245 2.6837 4.588 2.20881 5.4 1.85859C6.212 1.50836 7.07867 1.33325 8 1.33325C8.92134 1.33325 9.788 1.50836 10.6 1.85859C11.412 2.20881 12.1176 2.6837 12.7167 3.28325C13.3158 3.88281 13.7909 4.58836 14.142 5.39992C14.4931 6.21147 14.668 7.07814 14.6667 7.99992C14.6653 8.9217 14.4902 9.78836 14.1413 10.5999C13.7924 11.4115 13.3176 12.117 12.7167 12.7166C12.1158 13.3161 11.4102 13.7913 10.6 14.1419C9.78978 14.4926 8.92311 14.6675 8 14.6666ZM8 13.3333C9.48889 13.3333 10.75 12.8166 11.7833 11.7833C12.8167 10.7499 13.3333 9.48881 13.3333 7.99992C13.3333 6.51103 12.8167 5.24992 11.7833 4.21659C10.75 3.18325 9.48889 2.66659 8 2.66659C6.51111 2.66659 5.25 3.18325 4.21667 4.21659C3.18334 5.24992 2.66667 6.51103 2.66667 7.99992C2.66667 9.48881 3.18334 10.7499 4.21667 11.7833C5.25 12.8166 6.51111 13.3333 8 13.3333Z" fill="#333333"/>
</svg>
