<svg width="16" height="16" viewBox="0 0 16 16" fill="none" xmlns="http://www.w3.org/2000/svg">
<path d="M2.66667 10.3333C3.46667 10.3333 4.33333 10.2 5.06667 9.93333H5.26667C5.46667 9.93333 5.6 10 5.73333 10.1333L7.2 11.6C9.06667 10.6 10.6667 9.06667 11.6 7.2L10.1333 5.73333C9.93333 5.53333 9.86667 5.26667 10 5.06667C10.2 4.33333 10.3333 3.46667 10.3333 2.66667C10.3333 2.33333 10.6667 2 11 2H13.3333C13.6667 2 14 2.33333 14 2.66667C14 8.93333 8.93333 14 2.66667 14C2.33333 14 2 13.6667 2 13.3333V11C2 10.6667 2.33333 10.3333 2.66667 10.3333ZM12.6667 3.33333H11.6667C11.6 3.93333 11.4667 4.53333 11.3333 5.06667L12.1333 5.86667C12.4 5.06667 12.6 4.2 12.6667 3.33333ZM3.33333 12.6667C4.2 12.6 5.06667 12.4 5.86667 12.1333L5.06667 11.3333C4.53333 11.4667 3.93333 11.6 3.33333 11.6V12.6667Z" fill="#333333"/>
</svg>
