<svg width="16" height="16" viewBox="0 0 16 16" fill="none" xmlns="http://www.w3.org/2000/svg">
<path d="M14.6667 8.00016V13.3335C14.6667 13.6871 14.5262 14.0263 14.2762 14.2763C14.0261 14.5264 13.687 14.6668 13.3333 14.6668H2.66668C2.31306 14.6668 1.97392 14.5264 1.72387 14.2763C1.47382 14.0263 1.33335 13.6871 1.33335 13.3335V8.00016C1.15654 8.00016 0.986966 7.92992 0.861941 7.8049C0.736917 7.67988 0.666679 7.51031 0.666679 7.3335V5.3335C0.666679 4.97987 0.807155 4.64074 1.0572 4.39069C1.30725 4.14064 1.64639 4.00016 2.00001 4.00016H4.11335C4.038 3.78598 3.99968 3.56054 4.00001 3.3335C4.00001 2.80306 4.21073 2.29436 4.5858 1.91928C4.96087 1.54421 5.46958 1.3335 6.00001 1.3335C6.66668 1.3335 7.25335 1.66683 7.62001 2.16016V2.1535L8.00001 2.66683L8.38001 2.1535V2.16016C8.74668 1.66683 9.33335 1.3335 10 1.3335C10.5304 1.3335 11.0392 1.54421 11.4142 1.91928C11.7893 2.29436 12 2.80306 12 3.3335C12.0003 3.56054 11.962 3.78598 11.8867 4.00016H14C14.3536 4.00016 14.6928 4.14064 14.9428 4.39069C15.1929 4.64074 15.3333 4.97987 15.3333 5.3335V7.3335C15.3333 7.51031 15.2631 7.67988 15.1381 7.8049C15.0131 7.92992 14.8435 8.00016 14.6667 8.00016ZM2.66668 13.3335H7.33335V8.00016H2.66668V13.3335ZM13.3333 13.3335V8.00016H8.66668V13.3335H13.3333ZM6.00001 2.66683C5.8232 2.66683 5.65363 2.73707 5.52861 2.86209C5.40358 2.98712 5.33335 3.15668 5.33335 3.3335C5.33335 3.51031 5.40358 3.67988 5.52861 3.8049C5.65363 3.92992 5.8232 4.00016 6.00001 4.00016C6.17682 4.00016 6.34639 3.92992 6.47142 3.8049C6.59644 3.67988 6.66668 3.51031 6.66668 3.3335C6.66668 3.15668 6.59644 2.98712 6.47142 2.86209C6.34639 2.73707 6.17682 2.66683 6.00001 2.66683ZM10 2.66683C9.8232 2.66683 9.65363 2.73707 9.52861 2.86209C9.40358 2.98712 9.33335 3.15668 9.33335 3.3335C9.33335 3.51031 9.40358 3.67988 9.52861 3.8049C9.65363 3.92992 9.8232 4.00016 10 4.00016C10.1768 4.00016 10.3464 3.92992 10.4714 3.8049C10.5964 3.67988 10.6667 3.51031 10.6667 3.3335C10.6667 3.15668 10.5964 2.98712 10.4714 2.86209C10.3464 2.73707 10.1768 2.66683 10 2.66683ZM2.00001 5.3335V6.66683H7.33335V5.3335H2.00001ZM8.66668 5.3335V6.66683H14V5.3335H8.66668Z" fill="#1D1F1F"/>
</svg>
