<svg width="16" height="16" viewBox="0 0 16 16" fill="none" xmlns="http://www.w3.org/2000/svg">
<path d="M8 7.66659C7.55797 7.66659 7.13405 7.49099 6.82149 7.17843C6.50893 6.86587 6.33333 6.44195 6.33333 5.99992C6.33333 5.55789 6.50893 5.13397 6.82149 4.82141C7.13405 4.50885 7.55797 4.33325 8 4.33325C8.44203 4.33325 8.86595 4.50885 9.17851 4.82141C9.49107 5.13397 9.66667 5.55789 9.66667 5.99992C9.66667 6.21879 9.62356 6.43552 9.5398 6.63772C9.45604 6.83993 9.33327 7.02367 9.17851 7.17843C9.02375 7.33319 8.84001 7.45596 8.6378 7.53972C8.4356 7.62348 8.21887 7.66659 8 7.66659ZM8 1.33325C6.76232 1.33325 5.57534 1.82492 4.70017 2.70009C3.825 3.57526 3.33333 4.76224 3.33333 5.99992C3.33333 9.49992 8 14.6666 8 14.6666C8 14.6666 12.6667 9.49992 12.6667 5.99992C12.6667 4.76224 12.175 3.57526 11.2998 2.70009C10.4247 1.82492 9.23768 1.33325 8 1.33325Z" fill="#333333"/>
</svg>
