<svg width="16" height="16" viewBox="0 0 16 16" fill="none" xmlns="http://www.w3.org/2000/svg">
<path d="M9.4 5.66667L8 4.26667L6.6 5.66667L5.66666 4.73333L7.06666 3.33333L5.66666 1.93333L6.6 1L8 2.4L9.4 1L10.3333 1.93333L8.93333 3.33333L10.3333 4.73333L9.4 5.66667ZM4.66666 12C5.4 12 6 12.6 6 13.3333C6 14.0667 5.4 14.6667 4.66666 14.6667C3.93333 14.6667 3.33333 14.0667 3.33333 13.3333C3.33333 12.6 3.93333 12 4.66666 12ZM11.3333 12C12.0667 12 12.6667 12.6 12.6667 13.3333C12.6667 14.0667 12.0667 14.6667 11.3333 14.6667C10.6 14.6667 10 14.0667 10 13.3333C10 12.6 10.6 12 11.3333 12ZM4.8 9.86667C4.8 9.93333 4.86666 10 4.93333 10H12.6667V11.3333H4.66666C3.93333 11.3333 3.33333 10.7333 3.33333 10C3.33333 9.73333 3.4 9.53333 3.46666 9.33333L4.33333 7.73333L2 2.66667H0.666664V1.33333H2.86666L5.73333 7.33333H10.4L13 2.66667L14.1333 3.33333L11.5333 8C11.3333 8.4 10.8667 8.66667 10.4 8.66667H5.4L4.8 9.73333V9.86667Z" fill="#333333"/>
</svg>
