<svg width="16" height="16" viewBox="0 0 16 16" fill="none" xmlns="http://www.w3.org/2000/svg">
<path d="M12.6667 11.3333V7.86659C12.3333 7.93325 12 7.99992 11.6667 7.99992H11.3333V11.9999H4.66667V7.33325C4.66667 5.46659 6.13333 3.99992 8 3.99992C8.06667 3.13325 8.46667 2.39992 9 1.79992C8.8 1.53325 8.4 1.33325 8 1.33325C7.26667 1.33325 6.66667 1.93325 6.66667 2.66659V2.86659C4.66667 3.46659 3.33333 5.26659 3.33333 7.33325V11.3333L2 12.6666V13.3333H14V12.6666L12.6667 11.3333ZM6.66667 13.9999C6.66667 14.7333 7.26667 15.3333 8 15.3333C8.73333 15.3333 9.33333 14.7333 9.33333 13.9999H6.66667Z" fill="#333333"/>
<circle cx="12" cy="3.11114" r="2.22222" fill="#333333"/>
</svg>
