<svg width="16" height="16" viewBox="0 0 16 16" fill="none" xmlns="http://www.w3.org/2000/svg">
<path d="M12.6667 11.3333V7.86659C12.3333 7.93325 12 7.99992 11.6667 7.99992H11.3333V11.9999H4.66667V7.33325C4.66667 5.46659 6.13333 3.99992 8 3.99992C8.06667 3.13325 8.46667 2.39992 9 1.79992C8.8 1.53325 8.4 1.33325 8 1.33325C7.26667 1.33325 6.66667 1.93325 6.66667 2.66659V2.86659C4.66667 3.46659 3.33333 5.26659 3.33333 7.33325V11.3333L2 12.6666V13.3333H14V12.6666L12.6667 11.3333ZM6.66667 13.9999C6.66667 14.7333 7.26667 15.3333 8 15.3333C8.73333 15.3333 9.33333 14.7333 9.33333 13.9999H6.66667Z" fill="#333333"/>
<path d="M3.33333 11.3333V7.86659C3.66667 7.93325 4 7.99992 4.33333 7.99992H4.66667V11.9999H11.3333V7.33325C11.3333 5.46659 9.86667 3.99992 8 3.99992C7.93333 3.13325 7.53333 2.39992 7 1.79992C7.2 1.53325 7.6 1.33325 8 1.33325C8.73333 1.33325 9.33333 1.93325 9.33333 2.66659V2.86659C11.3333 3.46659 12.6667 5.26659 12.6667 7.33325V11.3333L14 12.6666V13.3333H2V12.6666L3.33333 11.3333ZM9.33333 13.9999C9.33333 14.7333 8.73333 15.3333 8 15.3333C7.26667 15.3333 6.66667 14.7333 6.66667 13.9999H9.33333Z" fill="#333333"/>
</svg>
