<svg width="16" height="16" viewBox="0 0 16 16" fill="none" xmlns="http://www.w3.org/2000/svg">
<g clip-path="url(#clip0_194_6610)">
<path fill-rule="evenodd" clip-rule="evenodd" d="M3.35009 5.61925L4.66809 6.93725V8.35192C4.66807 8.66251 4.59571 8.96882 4.45676 9.24659L3.74676 10.6666H8.39742L10.3414 12.6106C10.0849 13.08 9.69319 13.4614 9.21715 13.7054C8.74111 13.9494 8.20273 14.0447 7.67187 13.9788C7.14102 13.913 6.64221 13.6891 6.24019 13.3362C5.83818 12.9833 5.55152 12.5178 5.41742 11.9999H2.77609C2.65108 11.9999 2.52813 11.968 2.41893 11.9071C2.30974 11.8463 2.21792 11.7585 2.15219 11.6521C2.08646 11.5458 2.04901 11.4244 2.04339 11.2995C2.03777 11.1747 2.06417 11.0504 2.12009 10.9386L3.26409 8.64992C3.31045 8.55742 3.33465 8.45539 3.33476 8.35192V5.99992C3.33476 5.87192 3.33987 5.74503 3.35009 5.61925ZM8.00142 1.33325C8.61426 1.33325 9.22109 1.45396 9.78728 1.68848C10.3535 1.923 10.8679 2.26675 11.3013 2.70009C11.7346 3.13343 12.0783 3.64788 12.3129 4.21406C12.5474 4.78025 12.6681 5.38708 12.6681 5.99992V8.35192C12.668 8.45534 12.692 8.55736 12.7381 8.64992L13.8828 10.9386C13.9387 11.0504 13.9651 11.1747 13.9595 11.2995C13.9538 11.4244 13.9164 11.5458 13.8507 11.6521C13.7849 11.7585 13.6931 11.8463 13.5839 11.9071C13.4747 11.968 13.3518 11.9999 13.2268 11.9999H12.9428L13.6568 12.7139C13.7782 12.8397 13.8454 13.0081 13.8439 13.1829C13.8424 13.3577 13.7722 13.5249 13.6486 13.6485C13.525 13.7721 13.3578 13.8422 13.183 13.8437C13.0082 13.8452 12.8398 13.778 12.7141 13.6566L2.34342 3.28659C2.27975 3.22509 2.22896 3.15153 2.19402 3.07019C2.15908 2.98885 2.14069 2.90137 2.13992 2.81285C2.13915 2.72433 2.15602 2.63655 2.18954 2.55462C2.22306 2.47269 2.27257 2.39825 2.33516 2.33566C2.39776 2.27306 2.47219 2.22356 2.55412 2.19004C2.63605 2.15652 2.72384 2.13965 2.81236 2.14042C2.90088 2.14119 2.98836 2.15958 3.06969 2.19452C3.15103 2.22946 3.22459 2.28025 3.28609 2.34392L4.21476 3.27259C4.64668 2.67196 5.21539 2.1828 5.87386 1.84557C6.53233 1.50834 7.26162 1.33272 8.00142 1.33325ZM9.15476 11.9999H6.84542C6.96245 12.2026 7.13077 12.3709 7.33345 12.4879C7.53614 12.6049 7.76605 12.6665 8.00009 12.6665C8.23413 12.6665 8.46404 12.6049 8.66673 12.4879C8.86941 12.3709 9.03773 12.2026 9.15476 11.9999ZM8.00142 2.66659C7.4362 2.66644 6.88022 2.81003 6.38575 3.08386C5.89127 3.35768 5.47455 3.75275 5.17476 4.23192L11.6094 10.6666H12.2561L11.5461 9.24659C11.4071 8.96882 11.3348 8.66251 11.3348 8.35192V5.99992C11.3348 5.11586 10.9836 4.26802 10.3584 3.6429C9.73333 3.01778 8.88548 2.66659 8.00142 2.66659Z" fill="#333333"/>
</g>
<defs>
<clipPath id="clip0_194_6610">
<rect width="16" height="16" fill="white"/>
</clipPath>
</defs>
</svg>
