<svg width="16" height="16" viewBox="0 0 16 16" fill="none" xmlns="http://www.w3.org/2000/svg">
<path fill-rule="evenodd" clip-rule="evenodd" d="M8 2.54492C9.32608 2.54492 10.5979 3.07171 11.5355 4.00939C12.4732 4.94707 13 6.21884 13 7.54492C13 9.2527 12.0689 10.6505 11.0878 11.6533C10.5976 12.1488 10.0627 12.5982 9.49 12.9955L9.25333 13.1566L9.14222 13.2305L8.93278 13.3638L8.74611 13.4777L8.515 13.6121C8.35813 13.7017 8.18063 13.7488 8 13.7488C7.81937 13.7488 7.64187 13.7017 7.485 13.6121L7.25389 13.4777L6.965 13.2999L6.85833 13.2305L6.63056 13.0788C6.01268 12.6608 5.43717 12.1833 4.91222 11.6533C3.93111 10.6499 3 9.2527 3 7.54492C3 6.21884 3.52678 4.94707 4.46447 4.00939C5.40215 3.07171 6.67392 2.54492 8 2.54492ZM8 3.65603C6.9686 3.65603 5.97945 4.06575 5.25014 4.79506C4.52083 5.52437 4.11111 6.51352 4.11111 7.54492C4.11111 8.83492 4.81778 9.96714 5.70611 10.876C6.08807 11.2627 6.50092 11.6176 6.94056 11.9371L7.195 12.1183C7.27722 12.1757 7.3563 12.229 7.43222 12.2783L7.64889 12.4171L7.83945 12.5333L8 12.6271L8.25278 12.4777L8.45667 12.3499C8.56519 12.281 8.6813 12.2038 8.805 12.1183L9.05944 11.9371C9.49908 11.6176 9.91193 11.2627 10.2939 10.876C11.1822 9.9677 11.8889 8.83492 11.8889 7.54492C11.8889 6.51352 11.4792 5.52437 10.7499 4.79506C10.0206 4.06575 9.0314 3.65603 8 3.65603ZM8 5.3227C8.58937 5.3227 9.1546 5.55683 9.57135 5.97357C9.9881 6.39032 10.2222 6.95555 10.2222 7.54492C10.2222 8.13429 9.9881 8.69952 9.57135 9.11627C9.1546 9.53302 8.58937 9.76714 8 9.76714C7.41063 9.76714 6.8454 9.53302 6.42865 9.11627C6.0119 8.69952 5.77778 8.13429 5.77778 7.54492C5.77778 6.95555 6.0119 6.39032 6.42865 5.97357C6.8454 5.55683 7.41063 5.3227 8 5.3227ZM8 6.43381C7.70532 6.43381 7.4227 6.55087 7.21433 6.75925C7.00595 6.96762 6.88889 7.25024 6.88889 7.54492C6.88889 7.83961 7.00595 8.12222 7.21433 8.3306C7.4227 8.53897 7.70532 8.65603 8 8.65603C8.29469 8.65603 8.5773 8.53897 8.78567 8.3306C8.99405 8.12222 9.11111 7.83961 9.11111 7.54492C9.11111 7.25024 8.99405 6.96762 8.78567 6.75925C8.5773 6.55087 8.29469 6.43381 8 6.43381Z" fill="#333333"/>
</svg>
