<svg width="16" height="12" viewBox="0 0 16 12" fill="none" xmlns="http://www.w3.org/2000/svg">
<path fill-rule="evenodd" clip-rule="evenodd" d="M1.74434 6.51214L1.51534 5.99714L1.74434 5.48214C2.27129 4.29633 3.13087 3.2888 4.2189 2.58167C5.30693 1.87455 6.57671 1.49818 7.87434 1.49818C9.17196 1.49818 10.4417 1.87455 11.5298 2.58167C12.6178 3.2888 13.4774 4.29633 14.0043 5.48214L14.2323 5.99714L14.0033 6.51214C13.4763 7.69767 12.6167 8.70491 11.5288 9.41182C10.4408 10.1187 9.17126 10.495 7.87384 10.495C6.57642 10.495 5.30684 10.1187 4.21891 9.41182C3.13099 8.70491 2.27142 7.69767 1.74434 6.51214ZM0.374336 4.87314L0.114336 5.45814C0.0389491 5.62801 0 5.8118 0 5.99764C0 6.18349 0.0389491 6.36727 0.114336 6.53714L0.374336 7.12114C1.01932 8.57169 2.0711 9.80408 3.40227 10.669C4.73343 11.5339 6.28685 11.9943 7.87434 11.9943C9.46182 11.9943 11.0152 11.5339 12.3464 10.669C13.6776 9.80408 14.7294 8.57169 15.3743 7.12114L15.6343 6.53714C15.7099 6.36714 15.7489 6.18317 15.7489 5.99714C15.7489 5.81111 15.7099 5.62715 15.6343 5.45714L15.3743 4.87314C14.7294 3.42259 13.6776 2.1902 12.3464 1.32528C11.0152 0.460349 9.46182 0 7.87434 0C6.28685 0 4.73343 0.460349 3.40227 1.32528C2.0711 2.1902 1.01932 3.42259 0.374336 4.87314ZM9.37434 5.99714C9.37434 6.39497 9.2163 6.7765 8.935 7.0578C8.65369 7.33911 8.27216 7.49714 7.87434 7.49714C7.47651 7.49714 7.09498 7.33911 6.81368 7.0578C6.53237 6.7765 6.37434 6.39497 6.37434 5.99714C6.37434 5.59932 6.53237 5.21779 6.81368 4.93648C7.09498 4.65518 7.47651 4.49714 7.87434 4.49714C8.27216 4.49714 8.65369 4.65518 8.935 4.93648C9.2163 5.21779 9.37434 5.59932 9.37434 5.99714ZM10.8743 5.99714C10.8743 6.79279 10.5583 7.55586 9.99566 8.11846C9.43305 8.68107 8.66998 8.99714 7.87434 8.99714C7.07869 8.99714 6.31562 8.68107 5.75302 8.11846C5.19041 7.55586 4.87434 6.79279 4.87434 5.99714C4.87434 5.20149 5.19041 4.43843 5.75302 3.87582C6.31562 3.31321 7.07869 2.99714 7.87434 2.99714C8.66998 2.99714 9.43305 3.31321 9.99566 3.87582C10.5583 4.43843 10.8743 5.20149 10.8743 5.99714Z" fill="#333333"/>
</svg>
