<svg width="16" height="16" viewBox="0 0 16 16" fill="none" xmlns="http://www.w3.org/2000/svg">
<path d="M11.3333 14.0001V10.6667M4.66664 14.0001V10.6667" stroke="#1D1F1F" stroke-linecap="round"/>
<path d="M10.3333 8H5.66666C4.56666 8 4.01666 8 3.67466 8.39067C3.48399 8.608 3.39999 8.9 3.36266 9.334C3.31132 9.934 3.28532 10.2347 3.48332 10.4507C3.68132 10.6667 4.00999 10.6667 4.66666 10.6667H11.3333C11.99 10.6667 12.318 10.6667 12.516 10.4507C12.7147 10.2347 12.6887 9.93467 12.6367 9.334C12.6 8.90067 12.5153 8.60867 12.3247 8.39067C11.9833 8 11.4333 8 10.3333 8ZM4.66666 5.33333C4.66666 4.08667 4.66666 3.464 4.93466 3C5.11019 2.69599 5.36264 2.44353 5.66666 2.268C6.13066 2 6.75332 2 7.99999 2C9.24666 2 9.86932 2 10.3333 2.268C10.6373 2.44353 10.8898 2.69599 11.0653 3C11.3333 3.464 11.3333 4.08667 11.3333 5.33333V8H4.66666V5.33333Z" stroke="#1D1F1F"/>
</svg>
