<svg width="16" height="16" viewBox="0 0 16 16" fill="none" xmlns="http://www.w3.org/2000/svg">
<path d="M8 9.99976C9.10457 9.99976 10 9.10433 10 7.99976C10 6.89519 9.10457 5.99976 8 5.99976C6.89543 5.99976 6 6.89519 6 7.99976C6 9.10433 6.89543 9.99976 8 9.99976Z" stroke="#333333"/>
<path d="M2.44066 7.09325C2.756 7.29059 2.95866 7.62792 2.95866 7.99992C2.95866 8.37192 2.756 8.70925 2.44066 8.90658C2.22666 9.04192 2.088 9.14925 1.99 9.27725C1.88339 9.41621 1.8052 9.57481 1.75991 9.74399C1.71461 9.91317 1.70309 10.0896 1.726 10.2633C1.76066 10.5259 1.916 10.7953 2.226 11.3333C2.53733 11.8713 2.69266 12.1399 2.90266 12.3019C3.04162 12.4085 3.20022 12.4867 3.3694 12.532C3.53858 12.5773 3.71503 12.5888 3.88866 12.5659C4.04866 12.5446 4.21066 12.4793 4.43466 12.3606C4.59503 12.273 4.77498 12.2276 4.95768 12.2285C5.14039 12.2295 5.31987 12.2767 5.47933 12.3659C5.80133 12.5526 5.99266 12.8959 6.00599 13.2679C6.01533 13.5213 6.03933 13.6946 6.10133 13.8433C6.16834 14.0051 6.26659 14.1522 6.39048 14.2761C6.51436 14.4 6.66145 14.4982 6.82333 14.5653C7.06799 14.6666 7.37866 14.6666 7.99999 14.6666C8.62133 14.6666 8.93199 14.6666 9.17666 14.5653C9.33854 14.4982 9.48563 14.4 9.60951 14.2761C9.7334 14.1522 9.83165 14.0051 9.89866 13.8433C9.95999 13.6946 9.98466 13.5213 9.99399 13.2679C10.0073 12.8959 10.1987 12.5519 10.5207 12.3659C10.6801 12.2767 10.8596 12.2295 11.0423 12.2285C11.225 12.2276 11.405 12.273 11.5653 12.3606C11.7893 12.4793 11.952 12.5446 12.112 12.5659C12.4624 12.612 12.8169 12.517 13.0973 12.3019C13.3073 12.1406 13.4627 11.8713 13.7733 11.3333C13.912 11.0933 14.0193 10.9073 14.0993 10.7513M13.5593 8.90725C13.4034 8.81224 13.2741 8.67924 13.1835 8.52068C13.0929 8.36212 13.044 8.18318 13.0413 8.00059C13.0413 7.62792 13.244 7.29058 13.5593 7.09258C13.7733 6.95792 13.9113 6.85058 14.01 6.72258C14.1166 6.58363 14.1948 6.42503 14.2401 6.25585C14.2854 6.08667 14.2969 5.91022 14.274 5.73658C14.2393 5.47392 14.084 5.20459 13.774 4.66659C13.4627 4.12859 13.3073 3.85992 13.0973 3.69792C12.9584 3.59131 12.7998 3.51313 12.6306 3.46783C12.4614 3.42253 12.285 3.41101 12.1113 3.43392C11.9513 3.45525 11.7893 3.52059 11.5647 3.63925C11.4044 3.72668 11.2245 3.77205 11.042 3.77112C10.8594 3.77018 10.68 3.72298 10.5207 3.63392C10.3638 3.54038 10.2331 3.40857 10.141 3.25082C10.0489 3.09307 9.99834 2.91454 9.99399 2.73192C9.98466 2.47859 9.96066 2.30525 9.89866 2.15659C9.83165 1.99471 9.7334 1.84762 9.60951 1.72373C9.48563 1.59985 9.33854 1.50159 9.17666 1.43459C8.93199 1.33325 8.62133 1.33325 7.99999 1.33325C7.37866 1.33325 7.06799 1.33325 6.82333 1.43459C6.66145 1.50159 6.51436 1.59985 6.39048 1.72373C6.26659 1.84762 6.16834 1.99471 6.10133 2.15659C6.04 2.30525 6.01533 2.47859 6.00599 2.73192C6.00165 2.91454 5.95106 3.09307 5.85896 3.25082C5.76685 3.40857 5.63623 3.54038 5.47933 3.63392C5.31987 3.7231 5.14039 3.77037 4.95768 3.7713C4.77498 3.77223 4.59503 3.7268 4.43466 3.63925C4.21066 3.52059 4.04799 3.45525 3.88799 3.43392C3.53754 3.38783 3.18313 3.48279 2.90266 3.69792C2.69333 3.85992 2.53733 4.12859 2.22666 4.66659C2.088 4.90659 1.98066 5.09259 1.90066 5.24859" stroke="#333333" stroke-linecap="round"/>
</svg>
