<svg width="16" height="16" viewBox="0 0 16 16" fill="none" xmlns="http://www.w3.org/2000/svg">
<path d="M8 9.8V11.6M14 8.1224V9.035C14 11.375 14 12.5456 13.2968 13.2728C12.5936 14 11.4626 14 9.2 14H6.8C4.5374 14 3.4058 14 2.7032 13.2728C2.0006 12.5456 2 11.3756 2 9.035V8.1224C2 6.749 2 6.0626 2.312 5.4938C2.6228 4.9244 3.1922 4.5716 4.3304 3.8648L5.5304 3.1202C6.7334 2.3732 7.3352 2 8 2C8.6648 2 9.266 2.3732 10.4696 3.1202L11.6696 3.8648C12.8078 4.5716 13.3772 4.9244 13.6886 5.4938" stroke="#333333" stroke-width="0.9" stroke-linecap="round"/>
</svg>
