<svg width="16" height="16" viewBox="0 0 16 16" fill="none" xmlns="http://www.w3.org/2000/svg">
<path d="M4.97195 12.042C5.23996 12.042 5.49699 12.1485 5.68651 12.338C5.87602 12.5275 5.98249 12.7845 5.98249 13.0525C5.98249 13.3205 5.87602 13.5776 5.68651 13.7671C5.49699 13.9566 5.23996 14.0631 4.97195 14.0631C4.70394 14.0631 4.4469 13.9566 4.25739 13.7671C4.06788 13.5776 3.96141 13.3205 3.96141 13.0525C3.96141 12.7845 4.06788 12.5275 4.25739 12.338C4.4469 12.1485 4.70394 12.042 4.97195 12.042ZM11.0352 12.042C11.3032 12.042 11.5602 12.1485 11.7497 12.338C11.9393 12.5275 12.0457 12.7845 12.0457 13.0525C12.0457 13.3205 11.9393 13.5776 11.7497 13.7671C11.5602 13.9566 11.3032 14.0631 11.0352 14.0631C10.7672 14.0631 10.5101 13.9566 10.3206 13.7671C10.1311 13.5776 10.0246 13.3205 10.0246 13.0525C10.0246 12.7845 10.1311 12.5275 10.3206 12.338C10.5101 12.1485 10.7672 12.042 11.0352 12.042Z" stroke="#333333" stroke-width="1.01054"/>
<path d="M1.26646 1.93677L1.4423 1.99875C2.31945 2.30662 2.75802 2.4609 3.00863 2.82806C3.25925 3.19522 3.25925 3.6823 3.25925 4.65714V6.49093C3.25925 8.47293 3.30169 9.12641 3.88578 9.74217C4.4692 10.3579 5.40832 10.3579 7.28793 10.3579H8.00339M10.8598 10.3579C11.9115 10.3579 12.4376 10.3579 12.8095 10.0548C13.1807 9.7516 13.2872 9.2369 13.4994 8.20682L13.8362 6.57379C14.07 5.40157 14.1865 4.81613 13.8874 4.42741C13.589 4.03869 12.567 4.03869 11.4318 4.03869H7.34586M3.25925 4.03869H4.63493" stroke="#333333" stroke-width="1.01054" stroke-linecap="round"/>
</svg>
