<svg width="16" height="16" viewBox="0 0 16 16" fill="none" xmlns="http://www.w3.org/2000/svg">
<path fill-rule="evenodd" clip-rule="evenodd" d="M3.47133 3.65725C3.53055 3.55842 3.61437 3.47663 3.71462 3.41985C3.81487 3.36306 3.92812 3.33323 4.04333 3.33325H11.9547C12.0699 3.33323 12.1831 3.36306 12.2834 3.41985C12.3836 3.47663 12.4674 3.55842 12.5267 3.65725L14.0293 6.16192C14.0596 6.21251 14.076 6.27024 14.0767 6.32921C14.0774 6.38818 14.0625 6.44629 14.0334 6.4976C14.0043 6.54891 13.9622 6.59159 13.9112 6.62127C13.8602 6.65096 13.8023 6.6666 13.7433 6.66659H13V12.3333C13 12.5101 12.9298 12.6796 12.8047 12.8047C12.6797 12.9297 12.5101 12.9999 12.3333 12.9999H7.66666C7.48985 12.9999 7.32028 12.9297 7.19526 12.8047C7.07023 12.6796 7 12.5101 7 12.3333V8.79992C7 8.76456 6.98595 8.73064 6.96094 8.70564C6.93594 8.68063 6.90203 8.66659 6.86666 8.66659H4.8C4.76463 8.66659 4.73072 8.68063 4.70572 8.70564C4.68071 8.73064 4.66666 8.76456 4.66666 8.79992V12.3333C4.66666 12.5101 4.59643 12.6796 4.4714 12.8047C4.34638 12.9297 4.17681 12.9999 4 12.9999H3.66666C3.48985 12.9999 3.32028 12.9297 3.19526 12.8047C3.07023 12.6796 3 12.5101 3 12.3333V6.66659H2.25466C2.19563 6.66672 2.13762 6.65117 2.08657 6.62153C2.03551 6.59189 1.99325 6.54922 1.96409 6.49789C1.93493 6.44656 1.91993 6.38841 1.92062 6.32938C1.9213 6.27035 1.93765 6.21256 1.968 6.16192L3.47133 3.65725ZM8.33333 8.77725C8.33333 8.62392 8.458 8.49992 8.61133 8.49992H11.3887C11.542 8.49992 11.6667 8.62459 11.6667 8.77792V10.7219C11.6667 10.8753 11.5427 10.9999 11.3887 10.9999H8.61133C8.57482 10.9999 8.53867 10.9927 8.50494 10.9788C8.47121 10.9648 8.44057 10.9443 8.41475 10.9185C8.38894 10.8927 8.36846 10.862 8.35449 10.8283C8.34052 10.7946 8.33333 10.7584 8.33333 10.7219V8.77725Z" fill="#333333"/>
</svg>
