<svg width="16" height="16" viewBox="0 0 16 16" fill="none" xmlns="http://www.w3.org/2000/svg">
<path d="M2.88947 7.58327C2.78012 7.69363 2.71877 7.8427 2.71877 7.99805C2.71877 8.15341 2.78012 8.30248 2.88947 8.41284L6.80251 12.3259C6.85625 12.3835 6.92105 12.4298 6.99305 12.4619C7.06505 12.494 7.14277 12.5112 7.22158 12.5126C7.30039 12.514 7.37867 12.4995 7.45176 12.47C7.52485 12.4405 7.59124 12.3965 7.64698 12.3408C7.70271 12.285 7.74665 12.2187 7.77617 12.1456C7.80569 12.0725 7.82019 11.9942 7.8188 11.9154C7.81741 11.8366 7.80016 11.7589 7.76808 11.6869C7.736 11.6149 7.68974 11.5501 7.63208 11.4963L4.72077 8.58501H12.6956C12.8512 8.58501 13.0005 8.52317 13.1106 8.41309C13.2207 8.30302 13.2825 8.15373 13.2825 7.99805C13.2825 7.84238 13.2207 7.69309 13.1106 7.58301C13.0005 7.47294 12.8512 7.4111 12.6956 7.4111H4.72077L7.63208 4.49979C7.73576 4.38853 7.7922 4.24136 7.78952 4.0893C7.78683 3.93724 7.72523 3.79215 7.61769 3.68461C7.51015 3.57707 7.36507 3.51547 7.21301 3.51279C7.06094 3.5101 6.91378 3.56655 6.80251 3.67023L2.88947 7.58327Z" fill="#333333"/>
</svg>
