<svg width="16" height="16" viewBox="0 0 16 16" fill="none" xmlns="http://www.w3.org/2000/svg">
<path d="M10.3077 11.231V13.0772C10.3077 13.322 10.2104 13.5568 10.0373 13.7299C9.86422 13.903 9.62943 14.0002 9.38462 14.0002H2.92308C2.67826 14.0002 2.44347 13.903 2.27036 13.7299C2.09725 13.5568 2 13.322 2 13.0772V2.92332C2 2.67851 2.09725 2.44372 2.27036 2.27061C2.44347 2.0975 2.67826 2.00024 2.92308 2.00024H9.38462C9.62943 2.00024 9.86422 2.0975 10.0373 2.27061C10.2104 2.44372 10.3077 2.67851 10.3077 2.92332V4.76947M7.53846 8.00024H14M14 8.00024L12.1538 6.15409M14 8.00024L12.1538 9.8464" stroke="#333333" stroke-width="0.923077" stroke-linecap="round" stroke-linejoin="round"/>
</svg>
