<svg width="16" height="16" viewBox="0 0 16 16" fill="none" xmlns="http://www.w3.org/2000/svg">
<path d="M4.6665 4.55151H3.99984C3.64622 4.55151 3.30708 4.69199 3.05703 4.94204C2.80698 5.19209 2.6665 5.53123 2.6665 5.88485V11.8848C2.6665 12.2385 2.80698 12.5776 3.05703 12.8277C3.30708 13.0777 3.64622 13.2182 3.99984 13.2182H9.99984C10.3535 13.2182 10.6926 13.0777 10.9426 12.8277C11.1927 12.5776 11.3332 12.2385 11.3332 11.8848V11.2182" stroke="#333333" stroke-width="1.33333" stroke-linecap="round" stroke-linejoin="round"/>
<path d="M10.6665 3.21817L12.6665 5.21817M13.5898 4.27484C13.8524 4.01227 13.9999 3.65616 13.9999 3.28484C13.9999 2.91351 13.8524 2.5574 13.5898 2.29484C13.3273 2.03227 12.9712 1.88477 12.5998 1.88477C12.2285 1.88477 11.8724 2.03227 11.6098 2.29484L5.99984 7.88484V9.88484H7.99984L13.5898 4.27484Z" stroke="#333333" stroke-width="1.33333" stroke-linecap="round" stroke-linejoin="round"/>
</svg>
