<svg width="14" height="13" viewBox="0 0 14 13" fill="none" xmlns="http://www.w3.org/2000/svg">
<path d="M11.3898 3.79661H0.711864C0.523066 3.79661 0.342001 3.87161 0.2085 4.00511C0.0749998 4.13861 0 4.31968 0 4.50847V7.35593C0.00223147 8.85217 0.568438 10.2926 1.58568 11.3898H0.711864C0.523066 11.3898 0.342001 11.4648 0.2085 11.5983C0.0749998 11.7318 0 11.9129 0 12.1017C0 12.2905 0.0749998 12.4716 0.2085 12.6051C0.342001 12.7386 0.523066 12.8136 0.711864 12.8136H11.1525C11.3413 12.8136 11.5224 12.7386 11.6559 12.6051C11.7894 12.4716 11.8644 12.2905 11.8644 12.1017C11.8644 11.9129 11.7894 11.7318 11.6559 11.5983C11.5224 11.4648 11.3413 11.3898 11.1525 11.3898H10.2787C10.7902 10.8374 11.1927 10.1933 11.4652 9.49153C12.1443 9.47192 12.789 9.18828 13.2623 8.70089C13.7357 8.2135 14.0003 7.56076 14 6.88136V6.40678C13.9992 5.71476 13.724 5.05131 13.2346 4.56198C12.7453 4.07265 12.0818 3.7974 11.3898 3.79661ZM10.4407 7.35593C10.4392 8.19299 10.2055 9.01321 9.76562 9.72538C9.32576 10.4375 8.69695 11.0137 7.94915 11.3898H3.91525C3.16746 11.0137 2.53865 10.4375 2.09878 9.72538C1.65892 9.01321 1.42524 8.19299 1.42373 7.35593V5.22034H10.4407V7.35593ZM12.5763 6.88136C12.576 7.11826 12.5049 7.34968 12.372 7.5458C12.2391 7.74192 12.0505 7.89377 11.8306 7.98178C11.8532 7.77393 11.8645 7.56501 11.8644 7.35593V5.32C12.0759 5.4123 12.2559 5.56427 12.3823 5.7573C12.5087 5.95032 12.5762 6.17603 12.5763 6.40678V6.88136ZM2.84746 2.13559V0.711864C2.84746 0.523066 2.92246 0.342001 3.05596 0.2085C3.18946 0.0749998 3.37052 0 3.55932 0C3.74812 0 3.92919 0.0749998 4.06269 0.2085C4.19619 0.342001 4.27119 0.523066 4.27119 0.711864V2.13559C4.27119 2.32439 4.19619 2.50546 4.06269 2.63896C3.92919 2.77246 3.74812 2.84746 3.55932 2.84746C3.37052 2.84746 3.18946 2.77246 3.05596 2.63896C2.92246 2.50546 2.84746 2.32439 2.84746 2.13559ZM5.22034 2.13559V0.711864C5.22034 0.523066 5.29534 0.342001 5.42884 0.2085C5.56234 0.0749998 5.74341 0 5.9322 0C6.121 0 6.30207 0.0749998 6.43557 0.2085C6.56907 0.342001 6.64407 0.523066 6.64407 0.711864V2.13559C6.64407 2.32439 6.56907 2.50546 6.43557 2.63896C6.30207 2.77246 6.121 2.84746 5.9322 2.84746C5.74341 2.84746 5.56234 2.77246 5.42884 2.63896C5.29534 2.50546 5.22034 2.32439 5.22034 2.13559ZM7.59322 2.13559V0.711864C7.59322 0.523066 7.66822 0.342001 7.80172 0.2085C7.93522 0.0749998 8.11629 0 8.30508 0C8.49388 0 8.67495 0.0749998 8.80845 0.2085C8.94195 0.342001 9.01695 0.523066 9.01695 0.711864V2.13559C9.01695 2.32439 8.94195 2.50546 8.80845 2.63896C8.67495 2.77246 8.49388 2.84746 8.30508 2.84746C8.11629 2.84746 7.93522 2.77246 7.80172 2.63896C7.66822 2.50546 7.59322 2.32439 7.59322 2.13559Z" fill="#1D1F1F"/>
</svg>
