<svg width="16" height="16" viewBox="0 0 16 16" fill="none" xmlns="http://www.w3.org/2000/svg">
<path fill-rule="evenodd" clip-rule="evenodd" d="M5.00002 5.75V3.5C5.00002 2.70435 5.31609 1.94129 5.8787 1.37868C6.44131 0.81607 7.20437 0.5 8.00002 0.5C8.79567 0.5 9.55873 0.81607 10.1213 1.37868C10.684 1.94129 11 2.70435 11 3.5V5.75H13.25C13.4488 5.75 13.6395 5.82891 13.7801 5.9694C13.9207 6.10989 13.9998 6.30046 14 6.49925V14.75C14.0003 14.8486 13.9811 14.9462 13.9435 15.0374C13.9059 15.1285 13.8507 15.2113 13.781 15.281C13.7113 15.3507 13.6285 15.4059 13.5374 15.4435C13.4463 15.4811 13.3486 15.5003 13.25 15.5H2.75003C2.55124 15.5 2.36059 15.4211 2.21996 15.2806C2.07933 15.1401 2.00023 14.9495 2.00003 14.7507V6.5C1.99973 6.40142 2.01893 6.30376 2.05651 6.21263C2.0941 6.1215 2.14933 6.03871 2.21903 5.969C2.28874 5.8993 2.37153 5.84407 2.46266 5.80648C2.55379 5.7689 2.65145 5.7497 2.75003 5.75H5.00002ZM5.90002 5.75H10.1V3.5C10.1 2.94304 9.87877 2.4089 9.48495 2.01507C9.09112 1.62125 8.55698 1.4 8.00002 1.4C7.44307 1.4 6.90893 1.62125 6.5151 2.01507C6.12127 2.4089 5.90002 2.94304 5.90002 3.5V5.75ZM2.90003 6.65V14.6H13.1V6.65H2.90003ZM7.55002 10.9062C7.31314 10.8029 7.11908 10.6211 7.00048 10.3914C6.88187 10.1618 6.84595 9.89832 6.89875 9.64532C6.95156 9.39231 7.08987 9.1652 7.29043 9.00218C7.49099 8.83916 7.74157 8.75016 8.00002 8.75016C8.25848 8.75016 8.50906 8.83916 8.70962 9.00218C8.91018 9.1652 9.04849 9.39231 9.10129 9.64532C9.1541 9.89832 9.11818 10.1618 8.99957 10.3914C8.88096 10.6211 8.6869 10.8029 8.45002 10.9062V12.5H7.55002V10.9062Z" fill="#333333"/>
</svg>
