<svg width="16" height="16" viewBox="0 0 16 16" fill="none" xmlns="http://www.w3.org/2000/svg">
<path d="M12.674 3.26638C12.0627 2.6509 11.3351 2.16302 10.5335 1.83112C9.73184 1.49921 8.87214 1.32991 8.00443 1.33305C6.84446 1.33418 5.70506 1.63988 4.70046 2.21953C3.69586 2.79918 2.86128 3.63243 2.2803 4.63584C1.69932 5.63925 1.39235 6.77762 1.3901 7.93687C1.38785 9.0962 1.69043 10.2357 2.26751 11.2414L1.3336 14.6663L4.83578 13.7497C5.80285 14.2873 6.88948 14.5739 7.99609 14.583C9.75527 14.5831 11.4432 13.8887 12.6925 12.651C13.9419 11.4134 14.6515 9.73269 14.6669 7.9747C14.6611 7.09745 14.482 6.22999 14.14 5.42204C13.7981 4.61409 13.2998 3.88154 12.674 3.26638ZM8.00443 13.4413C7.01856 13.442 6.05072 13.1772 5.20268 12.6747L5.00255 12.5497L2.92626 13.0997L3.4766 11.0747L3.34318 10.8664C2.63378 9.72194 2.36903 8.3572 2.59907 7.0307C2.82911 5.70425 3.53798 4.50817 4.59138 3.66907C5.64479 2.82995 6.96953 2.4061 8.31471 2.47779C9.65988 2.54947 10.9321 3.11173 11.8902 4.05804C12.9375 5.08153 13.5371 6.47762 13.5579 7.94137C13.5447 9.40461 12.9538 10.8034 11.9137 11.8335C10.8737 12.8635 9.46868 13.4414 8.00443 13.4413ZM11.0146 9.3247C10.8479 9.24136 10.039 8.84136 9.88894 8.79136C9.73885 8.74136 9.62211 8.70803 9.51371 8.8747C9.35061 9.09811 9.17516 9.31228 8.98838 9.51636C8.89666 9.63303 8.79659 9.64136 8.62982 9.51636C7.67898 9.14086 6.88682 8.4492 6.38675 7.55803C6.21164 7.26637 6.55352 7.28304 6.87039 6.65804C6.89382 6.61296 6.90599 6.56296 6.90599 6.51221C6.90599 6.46146 6.89382 6.41146 6.87039 6.36637C6.87039 6.28303 6.49515 5.46637 6.36174 5.14137C6.22832 4.81637 6.0949 4.86637 5.9865 4.85804H5.6613C5.57704 4.85933 5.49403 4.87859 5.41781 4.91451C5.3416 4.95044 5.27394 5.00221 5.21936 5.06637C5.03226 5.24819 4.88632 5.46797 4.79139 5.7109C4.69646 5.95383 4.65473 6.21428 4.66901 6.47471C4.7213 7.09812 4.95622 7.69229 5.34444 8.18303C6.05505 9.2462 7.0289 10.1074 8.1712 10.683C8.77033 11.0325 9.46659 11.1787 10.1558 11.0997C10.3853 11.0542 10.6026 10.9609 10.7937 10.8259C10.9848 10.691 11.1453 10.5174 11.2648 10.3164C11.3755 10.071 11.4104 9.79828 11.3649 9.53303C11.2898 9.44969 11.1814 9.40803 11.0146 9.3247Z" fill="#333333"/>
</svg>
