<svg width="24" height="24" viewBox="0 0 24 24" fill="none" xmlns="http://www.w3.org/2000/svg">
<path fill-rule="evenodd" clip-rule="evenodd" d="M2.33223 2.65856C2.46045 2.40779 2.71836 2.25 3 2.25H8C8.24083 2.25 8.46701 2.36565 8.60801 2.56088L13.544 9.39534L20.4697 2.46967C20.7626 2.17678 21.2374 2.17678 21.5303 2.46967C21.8232 2.76256 21.8232 3.23744 21.5303 3.53033L14.4336 10.6271L21.608 20.5609C21.7729 20.7892 21.796 21.0907 21.6678 21.3414C21.5396 21.5922 21.2817 21.75 21 21.75H16C15.7592 21.75 15.533 21.6344 15.392 21.4391L10.456 14.6047L3.53033 21.5303C3.23744 21.8232 2.76257 21.8232 2.46967 21.5303C2.17678 21.2374 2.17678 20.7626 2.46967 20.4697L9.56641 13.3729L2.39199 3.43912C2.22709 3.21079 2.20401 2.90933 2.33223 2.65856ZM4.46682 3.75L16.3835 20.25H19.5332L7.61652 3.75H4.46682Z" fill="white"/>
</svg>
